<svg width="92" height="44" viewBox="0 0 92 44" fill="none" xmlns="http://www.w3.org/2000/svg">
<path d="M87.9766 28.6246C89.5663 17.6579 80.6667 12.0626 77.799 10.9358C72.0789 -0.0385623 58.2351 0.547975 54.5916 2.87097C50.621 -0.0385621 48.2249 2.57649e-05 46.0114 2.57649e-05C43.7979 2.57649e-05 41.4019 -0.0385621 37.4236 2.87097C33.7877 0.547975 19.9363 -0.0385623 14.2086 10.9358C11.3485 12.0626 2.44128 17.6579 4.03104 28.6246C-1.37719 30.6697 -0.631754 39.2671 2.1218 43.0333H89.8782C92.6318 39.2671 93.3772 30.6697 87.969 28.6246H87.9766ZM6.5488 29.4426C6.54119 29.5044 6.51837 29.5661 6.49555 29.6279C6.47273 29.6896 6.44231 29.7436 6.41188 29.7976C6.37385 29.8517 6.33582 29.9057 6.29018 29.9443C6.24454 29.9829 6.1989 30.0292 6.14565 30.0678C6.09241 30.0986 6.03155 30.1372 5.97831 30.1604C5.91746 30.1835 5.85661 30.2067 5.79575 30.2144C5.7349 30.2298 5.66644 30.2298 5.60559 30.2298C5.54474 30.2298 5.47628 30.2298 5.41543 30.2144C5.35457 30.199 5.29372 30.1835 5.23287 30.1604C5.17202 30.1372 5.11877 30.1063 5.06553 30.0678C5.01228 30.0369 4.96664 29.9906 4.921 29.9443C4.87536 29.898 4.83733 29.8517 4.7993 29.7976C4.76127 29.7436 4.73845 29.6896 4.70802 29.6279C4.6852 29.5661 4.66238 29.5044 4.65478 29.4426C4.64717 29.3809 4.63956 29.3114 4.63956 29.2497C4.63956 28.9873 4.73845 28.7403 4.921 28.5551C5.14159 28.3313 5.48389 28.2233 5.79575 28.285C5.85661 28.2927 5.91746 28.3159 5.97831 28.339C6.03916 28.3622 6.09241 28.393 6.14565 28.4316C6.1989 28.4625 6.24454 28.5088 6.29018 28.5551C6.47273 28.7403 6.57162 28.995 6.57162 29.2497C6.57162 29.3114 6.56401 29.3809 6.5488 29.4426ZM9.49252 30.2298C8.96006 30.2298 8.52649 29.7899 8.52649 29.2497C8.52649 28.7095 8.96006 28.2618 9.49252 28.2618C10.025 28.2618 10.4585 28.7017 10.4585 29.2497C10.4585 29.7976 10.025 30.2298 9.49252 30.2298ZM14.3379 29.4426C14.3227 29.5044 14.3074 29.5661 14.2846 29.6279C14.2618 29.6896 14.2314 29.7436 14.1933 29.7976C14.1629 29.8517 14.1173 29.9057 14.0716 29.9443C14.026 29.9829 13.9804 30.0292 13.9271 30.0678C13.8739 30.0986 13.8206 30.1372 13.7598 30.1604C13.6989 30.1835 13.6381 30.2067 13.5772 30.2144C13.5164 30.2298 13.4479 30.2298 13.3871 30.2298C13.3262 30.2298 13.2577 30.2298 13.1969 30.2144C13.136 30.199 13.0752 30.1835 13.0143 30.1604C12.9535 30.1372 12.9002 30.1063 12.847 30.0678C12.7937 30.0369 12.7481 29.9906 12.7025 29.9443C12.6568 29.898 12.6188 29.8517 12.5808 29.7976C12.5503 29.7436 12.5123 29.6896 12.4895 29.6279C12.4667 29.5661 12.4438 29.5044 12.4362 29.4426C12.421 29.3809 12.421 29.3114 12.421 29.2497C12.421 28.9873 12.5199 28.7403 12.7025 28.5551C12.7481 28.5088 12.7937 28.4702 12.847 28.4316C12.9002 28.393 12.9535 28.3622 13.0143 28.339C13.0752 28.3159 13.136 28.2927 13.1969 28.285C13.5088 28.2233 13.8434 28.3236 14.0716 28.5551C14.2542 28.7403 14.3531 28.995 14.3531 29.2497C14.3531 29.3114 14.3531 29.3809 14.3379 29.4426ZM16.5438 12.5951C16.4981 12.6414 16.4525 12.68 16.3992 12.7186C16.346 12.7495 16.2927 12.7804 16.2319 12.8112C16.171 12.8344 16.1102 12.8575 16.0493 12.8652C15.9885 12.8807 15.92 12.8807 15.8592 12.8807C15.6006 12.8807 15.3571 12.7726 15.1746 12.5951C14.992 12.4099 14.8931 12.1629 14.8931 11.9005C14.8931 11.8388 14.8931 11.7693 14.9084 11.7076C14.9236 11.6459 14.9388 11.5841 14.9616 11.5224C14.9844 11.4606 15.0149 11.4066 15.0529 11.3526C15.0909 11.2986 15.1289 11.2523 15.1746 11.206C15.3952 10.9822 15.7299 10.8741 16.0493 10.9358C16.1102 10.9513 16.171 10.9667 16.2319 10.9976C16.2927 11.0207 16.346 11.0516 16.3992 11.0825C16.4525 11.1211 16.4981 11.1597 16.5438 11.206C16.5894 11.2523 16.6274 11.2986 16.6655 11.3526C16.7035 11.4066 16.7339 11.4684 16.7567 11.5224C16.7796 11.5841 16.8024 11.6459 16.81 11.7076C16.8252 11.7693 16.8252 11.8388 16.8252 11.9005C16.8252 12.1629 16.7263 12.4099 16.5438 12.5951ZM19.9971 14.5168C19.8146 14.8178 19.4951 14.9799 19.1756 14.9799C19.0007 14.9799 18.8257 14.9336 18.666 14.8332C18.2172 14.5477 18.0727 13.9457 18.3617 13.4827C18.6432 13.0196 19.2365 12.8807 19.6929 13.1662C20.1493 13.4518 20.2862 14.0615 20.0047 14.5245L19.9971 14.5168ZM23.1766 16.7935C22.9941 16.9787 22.7431 17.0791 22.4921 17.0791C22.4312 17.0791 22.3627 17.0791 22.3019 17.0636C22.241 17.0482 22.1802 17.0327 22.1193 17.0096C22.0585 16.9864 22.0052 16.9556 21.952 16.917C21.8988 16.8861 21.8531 16.8398 21.8075 16.7935C21.6249 16.6083 21.526 16.3536 21.526 16.0989C21.526 16.0372 21.5336 15.9677 21.5412 15.906C21.5565 15.8442 21.5717 15.7825 21.5945 15.7208C21.6173 15.659 21.6477 15.605 21.6858 15.551C21.7238 15.4969 21.7618 15.4429 21.8075 15.4043C21.8531 15.3657 21.8988 15.3194 21.952 15.2809C22.0052 15.2423 22.0585 15.2114 22.1193 15.1882C22.1802 15.1651 22.241 15.1419 22.3019 15.1342C22.4312 15.1111 22.5605 15.1111 22.6822 15.1342C22.7431 15.1497 22.8039 15.1651 22.8648 15.1882C22.9256 15.2114 22.9789 15.2423 23.0321 15.2809C23.0854 15.3117 23.131 15.358 23.1766 15.4043C23.2223 15.4506 23.2603 15.4969 23.2983 15.551C23.3364 15.605 23.3592 15.659 23.3896 15.7208C23.4124 15.7825 23.4353 15.8442 23.4429 15.906C23.4505 15.9677 23.4581 16.0372 23.4581 16.0989C23.4581 16.3613 23.3516 16.6083 23.1766 16.7935ZM37.1955 4.96244C37.0129 4.77721 36.914 4.52253 36.914 4.26785C36.914 4.20611 36.914 4.13665 36.9292 4.07491C36.9444 4.01317 36.9597 3.95143 36.9825 3.88969C37.0053 3.82795 37.0357 3.77393 37.0737 3.7199C37.1042 3.66588 37.1498 3.61958 37.1955 3.57327C37.4236 3.34946 37.7583 3.24141 38.0702 3.30315C38.1311 3.31859 38.1919 3.33402 38.2528 3.35718C38.3136 3.38033 38.3669 3.4112 38.4201 3.44979C38.4734 3.48838 38.519 3.52696 38.5646 3.57327C38.6103 3.61958 38.6483 3.66588 38.6863 3.7199C38.7244 3.77393 38.7548 3.82795 38.7776 3.88969C38.8004 3.95143 38.8232 4.01317 38.8309 4.07491C38.8461 4.13665 38.8461 4.20611 38.8461 4.26785C38.8461 4.53025 38.7472 4.77721 38.5646 4.96244C38.519 5.00874 38.4734 5.04733 38.4201 5.08592C38.3669 5.11679 38.3136 5.14766 38.2528 5.17853C38.1919 5.20168 38.1311 5.22483 38.0702 5.23255C38.0094 5.24027 37.9409 5.24799 37.88 5.24799C37.8192 5.24799 37.7507 5.24027 37.6899 5.23255C37.629 5.21712 37.5682 5.20168 37.5073 5.17853C37.4465 5.15538 37.3932 5.12451 37.34 5.08592C37.2867 5.04733 37.2411 5.00874 37.1955 4.96244ZM37.4845 7.30087C37.3856 6.76835 37.7203 6.25127 38.2528 6.15094C38.7776 6.05062 39.2872 6.39019 39.3861 6.9227C39.485 7.45522 39.1503 7.9723 38.6255 8.08034C38.5646 8.09578 38.4962 8.09578 38.4353 8.09578C37.9865 8.09578 37.5758 7.77164 37.4845 7.30087ZM39.6676 10.658C39.6219 10.7043 39.5763 10.7429 39.523 10.7815C39.4698 10.8201 39.4166 10.851 39.3557 10.8741C39.2949 10.8973 39.234 10.9204 39.1731 10.9281C39.1123 10.9436 39.0438 10.9513 38.983 10.9513C38.9221 10.9513 38.8537 10.9436 38.7928 10.9281C38.732 10.9204 38.6711 10.8973 38.6103 10.8741C38.5494 10.851 38.4962 10.8201 38.4429 10.7815C38.3897 10.7506 38.344 10.7043 38.2984 10.658C38.1158 10.4728 38.017 10.2181 38.017 9.96343C38.017 9.90169 38.0246 9.83223 38.0322 9.77049C38.0474 9.70875 38.0626 9.64701 38.0854 9.58527C38.1082 9.52353 38.1387 9.46951 38.1767 9.41548C38.2147 9.36146 38.2528 9.31516 38.2984 9.26885C38.344 9.22254 38.3897 9.18396 38.4429 9.14537C38.4962 9.10678 38.5494 9.07591 38.6103 9.05276C38.6711 9.0296 38.732 9.00645 38.7928 8.99873C38.9221 8.97558 39.0514 8.97558 39.1731 8.99873C39.234 9.01417 39.2949 9.0296 39.3557 9.05276C39.4166 9.07591 39.4698 9.10678 39.523 9.14537C39.5763 9.17624 39.6219 9.22254 39.6676 9.26885C39.7132 9.31516 39.7512 9.36146 39.7893 9.41548C39.8197 9.46951 39.8501 9.52353 39.8806 9.58527C39.9034 9.64701 39.9262 9.70875 39.9338 9.77049C39.9414 9.83223 39.949 9.90169 39.949 9.96343C39.949 10.2258 39.8425 10.4728 39.6676 10.658ZM53.983 10.1564C53.9678 10.2181 53.9526 10.2799 53.9298 10.3416C53.907 10.4033 53.8765 10.4574 53.8385 10.5114C53.8005 10.5654 53.7625 10.6194 53.7168 10.658C53.6712 10.7043 53.6255 10.7429 53.5723 10.7815C53.519 10.8201 53.4658 10.851 53.4049 10.8741C53.3441 10.8973 53.2832 10.9204 53.2224 10.9281C53.1615 10.9436 53.0931 10.9513 53.0322 10.9513C52.9714 10.9513 52.9029 10.9436 52.8421 10.9281C52.7812 10.9204 52.7204 10.8973 52.6595 10.8741C52.5987 10.851 52.5454 10.8201 52.4922 10.7815C52.4389 10.7506 52.3933 10.7043 52.3476 10.658C52.1651 10.4728 52.0662 10.2181 52.0662 9.96343C52.0662 9.90169 52.0662 9.83223 52.0814 9.77049C52.0966 9.70875 52.1118 9.64701 52.1347 9.58527C52.1575 9.52353 52.1879 9.46951 52.2259 9.41548C52.2564 9.36146 52.302 9.31516 52.3476 9.26885C52.5758 9.03732 52.9105 8.93699 53.2224 8.99873C53.2832 9.01417 53.3441 9.0296 53.4049 9.05276C53.4658 9.07591 53.519 9.10678 53.5723 9.14537C53.6255 9.17624 53.6712 9.22254 53.7168 9.26885C53.7625 9.31516 53.8005 9.36146 53.8385 9.41548C53.8689 9.46951 53.907 9.52353 53.9298 9.58527C53.9526 9.64701 53.9754 9.70875 53.983 9.77049C53.9983 9.83223 53.9983 9.90169 53.9983 9.96343C53.9983 10.0252 53.9983 10.0946 53.983 10.1564ZM54.5307 7.30087C54.4394 7.77164 54.0363 8.09578 53.5799 8.09578C53.519 8.09578 53.4582 8.08806 53.3897 8.08034C52.8649 7.9723 52.5226 7.45522 52.6215 6.9227C52.7204 6.39019 53.2376 6.0429 53.7625 6.15094C54.2873 6.25127 54.6296 6.77607 54.5231 7.30087H54.5307ZM54.8198 4.96244C54.7741 5.00874 54.7285 5.04733 54.6752 5.08592C54.622 5.11679 54.5687 5.14766 54.5079 5.17853C54.447 5.20168 54.3862 5.22483 54.3253 5.23255C54.2645 5.24027 54.2036 5.24799 54.1352 5.24799C54.0667 5.24799 54.0059 5.24027 53.945 5.23255C53.8842 5.21712 53.8233 5.20168 53.7625 5.17853C53.7016 5.15538 53.6484 5.12451 53.5951 5.08592C53.5419 5.04733 53.4886 5.00874 53.4506 4.96244C53.268 4.77721 53.1691 4.52253 53.1691 4.26785C53.1691 4.20611 53.1768 4.13665 53.192 4.07491C53.1996 4.01317 53.2224 3.95143 53.2452 3.88969C53.268 3.82795 53.2985 3.77393 53.3289 3.7199C53.3669 3.66588 53.4049 3.61958 53.4506 3.57327C53.6331 3.38805 53.8766 3.28772 54.1352 3.28772C54.3938 3.28772 54.6372 3.39577 54.8198 3.57327C54.8654 3.61958 54.9034 3.66588 54.9415 3.7199C54.9719 3.77393 55.0023 3.82795 55.0327 3.88969C55.0556 3.95143 55.0784 4.01317 55.086 4.07491C55.0936 4.13665 55.1012 4.20611 55.1012 4.26785C55.1012 4.52253 55.0023 4.77721 54.8198 4.96244ZM70.2077 16.7935C70.1621 16.8398 70.1165 16.8784 70.0632 16.917C70.01 16.9556 69.9567 16.9864 69.8959 17.0096C69.835 17.0327 69.7742 17.0559 69.7133 17.0636C69.6525 17.0791 69.584 17.0791 69.5232 17.0791C69.4623 17.0791 69.3938 17.0791 69.333 17.0636C69.2721 17.0482 69.2113 17.0327 69.1504 17.0096C69.0896 16.9864 69.0363 16.9556 68.9831 16.917C68.9298 16.8861 68.8766 16.8398 68.831 16.7935C68.6484 16.6083 68.5495 16.3536 68.5495 16.0989C68.5495 16.0372 68.5495 15.9677 68.5647 15.906C68.5799 15.8442 68.5952 15.7825 68.618 15.7208C68.6408 15.659 68.6712 15.605 68.7093 15.551C68.7473 15.4969 68.7853 15.4429 68.831 15.4043C69.0135 15.2191 69.2645 15.1188 69.5155 15.1188C69.7666 15.1188 70.0176 15.2268 70.2001 15.4043C70.2458 15.4506 70.2838 15.4969 70.3218 15.551C70.3523 15.605 70.3903 15.659 70.4131 15.7208C70.4359 15.7825 70.4588 15.8442 70.4664 15.906C70.4816 15.9677 70.4816 16.0372 70.4816 16.0989C70.4816 16.3613 70.3827 16.6083 70.2001 16.7935H70.2077ZM73.3492 14.8332C73.1895 14.9336 73.0145 14.9799 72.8396 14.9799C72.5125 14.9799 72.2006 14.8178 72.0181 14.5168C71.7366 14.0538 71.8736 13.4518 72.3224 13.1585C72.7787 12.873 73.3721 13.0119 73.6611 13.4749C73.9425 13.938 73.8056 14.54 73.3492 14.8255V14.8332ZM76.8406 12.5951C76.6581 12.7804 76.4071 12.8807 76.156 12.8807C76.0876 12.8807 76.0267 12.8807 75.9659 12.8652C75.905 12.8498 75.8442 12.8344 75.7833 12.8112C75.7225 12.7881 75.6692 12.7572 75.616 12.7186C75.5627 12.68 75.5171 12.6414 75.4715 12.5951C75.2889 12.4099 75.19 12.1629 75.19 11.9005C75.19 11.8388 75.19 11.7693 75.2052 11.7076C75.2204 11.6459 75.2356 11.5841 75.2585 11.5224C75.2813 11.4606 75.3117 11.4066 75.3497 11.3526C75.3878 11.2986 75.4258 11.2523 75.4715 11.206C75.5171 11.1597 75.5627 11.1211 75.616 11.0825C75.6692 11.0439 75.7225 11.0207 75.7833 10.9976C75.8442 10.9744 75.905 10.9513 75.9659 10.9358C76.2777 10.8741 76.6124 10.9822 76.8406 11.206C76.8863 11.2523 76.9243 11.2986 76.9623 11.3526C76.9928 11.4066 77.0232 11.4684 77.046 11.5224C77.0688 11.5841 77.0916 11.6459 77.1069 11.7076C77.1145 11.7693 77.1221 11.8388 77.1221 11.9005C77.1221 12.1629 77.0156 12.4099 76.8406 12.5951ZM79.579 29.4426C79.5714 29.5044 79.5485 29.5661 79.5257 29.6279C79.5029 29.6896 79.4725 29.7436 79.4344 29.7976C79.404 29.8517 79.3584 29.9057 79.3127 29.9443C79.2671 29.9829 79.2215 30.0292 79.1682 30.0678C79.115 30.1063 79.0541 30.1372 79.0009 30.1604C78.94 30.1835 78.8792 30.2067 78.8183 30.2144C78.7575 30.2221 78.689 30.2298 78.6282 30.2298C78.5673 30.2298 78.4988 30.2298 78.438 30.2144C78.3771 30.199 78.3163 30.1835 78.2554 30.1604C78.1946 30.1372 78.1413 30.1063 78.0881 30.0678C78.0349 30.0292 77.9816 29.9906 77.9436 29.9443C77.9055 29.898 77.8599 29.8517 77.8219 29.7976C77.7914 29.7436 77.7534 29.6896 77.7306 29.6279C77.7078 29.5661 77.685 29.5044 77.6773 29.4426C77.6621 29.3809 77.6621 29.3114 77.6621 29.2497C77.6621 28.9873 77.7686 28.7403 77.9436 28.5551C78.1185 28.3699 78.3695 28.2696 78.6282 28.2696C78.8868 28.2696 79.1302 28.3776 79.3127 28.5551C79.4953 28.7403 79.5942 28.995 79.5942 29.2497C79.5942 29.3114 79.5866 29.3809 79.5714 29.4426H79.579ZM82.5227 30.2298C81.9902 30.2298 81.5567 29.7899 81.5567 29.2497C81.5567 28.7095 81.9902 28.2618 82.5227 28.2618C83.0552 28.2618 83.4887 28.7017 83.4887 29.2497C83.4887 29.7976 83.0552 30.2298 82.5227 30.2298ZM87.368 29.4426C87.3528 29.5044 87.3376 29.5661 87.3148 29.6279C87.292 29.6896 87.2616 29.7436 87.2235 29.7976C87.1931 29.8517 87.1475 29.9057 87.1018 29.9443C87.0562 29.9829 87.0105 30.0292 86.9573 30.0678C86.904 30.0986 86.8508 30.1372 86.7899 30.1604C86.7291 30.1835 86.6682 30.2067 86.6074 30.2144C86.5465 30.2298 86.4781 30.2298 86.4172 30.2298C86.3564 30.2298 86.2879 30.2298 86.2271 30.2144C86.1662 30.199 86.1054 30.1835 86.0445 30.1604C85.9837 30.1372 85.9304 30.1063 85.8772 30.0678C85.8239 30.0369 85.7707 29.9906 85.7326 29.9443C85.6946 29.898 85.649 29.8517 85.6109 29.7976C85.5805 29.7436 85.5425 29.6896 85.5197 29.6279C85.4968 29.5661 85.474 29.5044 85.4664 29.4426C85.4512 29.3809 85.4512 29.3114 85.4512 29.2497C85.4512 28.9873 85.5577 28.7403 85.7326 28.5551C85.7783 28.5088 85.8239 28.4702 85.8772 28.4316C85.9304 28.393 85.9913 28.3622 86.0445 28.339C86.1054 28.3159 86.1662 28.2927 86.2271 28.285C86.3488 28.2618 86.4781 28.2618 86.6074 28.285C86.6682 28.2927 86.7291 28.3159 86.7899 28.339C86.8508 28.3622 86.904 28.393 86.9573 28.4316C87.0105 28.4625 87.0562 28.5088 87.1018 28.5551C87.2844 28.7403 87.3833 28.995 87.3833 29.2497C87.3833 29.3114 87.3833 29.3809 87.368 29.4426Z" fill="#FFF7F7"/>
</svg>
