<?xml version="1.0" encoding="UTF-8"?>
<svg id="_レイヤー_2" data-name="レイヤー 2" xmlns="http://www.w3.org/2000/svg" viewBox="0 0 341.74 29.28">
  <defs>
    <style>
      .cls-1 {
        fill: #fff7f7;
        stroke-width: 0px;
      }
    </style>
  </defs>
  <g id="_レイヤー_1-2" data-name="レイヤー 1">
    <g>
      <g>
        <path class="cls-1" d="M84.53,17.17c.82.49,1.6.96,2.1,1.58,1.07,1.32,1.39,2.71.86,3.7-.69,1.29-2.72,1.85-5.7,1.57-.42-.05-.85.08-1.16.35-.31.27-.48.65-.48,1.07-.03.93.64,1.72,1.55,1.79.54.05,1.05.07,1.55.07,3.09,0,5.43-.9,6.67-2.59,1.2-1.63,1.27-3.85.21-6.41-1.25-2.44-2.86-3.26-4.03-3.86-1.34-.68-2.08-1.06-1.36-3.25.25-.86-.18-1.73-.99-1.99-.9-.25-1.83.22-2.12,1.08-1.47,4.29.85,5.67,2.89,6.89Z"/>
        <path class="cls-1" d="M83.02,4.53c1.82.62,3.59,2.03,4.63,3.68h0c.26.39.63.64,1.05.73.09.02.19.03.28.03.29,0,.57-.09.81-.25.76-.54.99-1.59.53-2.33-1.39-2.21-3.68-4.05-6.12-4.92-.88-.31-1.82.14-2.19,1.07-.29.8.15,1.67,1.01,1.99Z"/>
        <path class="cls-1" d="M92.82,16.45c-.41-.12-.85-.07-1.23.15-.41.23-.7.61-.82,1.07-.21.79.31,1.66,1.15,1.92,2.44.72,4.09,2.35,4.9,4.87h0c.25.76.94,1.25,1.67,1.25.11,0,.23-.01.34-.04.46-.11.85-.4,1.07-.81.21-.37.25-.79.12-1.18-1.11-3.69-3.67-6.26-7.2-7.24Z"/>
        <path class="cls-1" d="M72.71,25.69c.22.12.45.19.69.19.15,0,.3-.03.45-.08,2.95-.97,6.29-3.26,7.94-5.44.25-.33.35-.74.28-1.17-.07-.45-.33-.87-.71-1.14-.67-.49-1.62-.34-2.17.36-1.33,1.68-3.88,3.48-6.06,4.26-.83.29-1.36,1.16-1.18,1.94.09.46.37.86.76,1.08Z"/>
        <path class="cls-1" d="M117.62,15.49l-.09-.1q-1.51-1.66,0-3.35c2.35-2.56,4.15-4.7,6.04-8.97.36-.83-.03-1.83-.86-2.19-.39-.19-.83-.21-1.24-.05-.41.15-.75.48-.93.88-1.8,4.06-3.81,6.37-5.28,8.05-1.25,1.43-2.15,2.46-2.15,3.75,0,1.59.79,2.51,1.99,3.9,1.46,1.7,3.68,4.26,6.06,9.88.16.4.48.73.88.9.21.09.43.13.65.13s.43-.04.64-.13c.83-.36,1.25-1.34.93-2.19-1.87-4.78-4-7.65-6.64-10.49Z"/>
        <path class="cls-1" d="M165.76,10.28c-2.07-1.52-4.78-2.47-7.64-2.67-.42-.04-.83.1-1.15.39-.32.28-.51.67-.55,1.1-.04.83.61,1.56,1.45,1.63,2.33.2,4.43.92,6.08,2.09.29.21.62.32.94.32.46,0,.91-.21,1.2-.61h0c.52-.75.37-1.75-.33-2.24Z"/>
        <path class="cls-1" d="M140.75,11.68c1.86-.09,3.71-.3,5.66-.64.15,1.67.25,3.45.28,5.29-1.34.84-2.65,1.83-3.89,2.95-1.97,1.79-2.81,3.3-2.58,4.63.29,1.68,2.24,2.7,3.92,3.4,1.69.65,3.02.7,3.96.14.81-.48,1.31-1.41,1.49-2.77.21-2.22.3-4.45.27-6.61,3.55-1.83,7.08-2.23,9.45-1.06,1.43.71,2.34,1.95,2.62,3.58.24,1.4-.43,2.71-1.78,3.5-1.4.82-3.59,1.02-5.31-.38-.65-.54-1.55-.57-2.13-.06-.69.61-.78,1.6-.21,2.24,1.14,1.24,2.66,1.9,4.66,2,.19.01.37.02.55.02,4.36,0,6.79-2.93,7.28-5.94.5-3.08-1.06-6.96-5.64-8.2-2.9-.78-6.2-.44-9.57.99-.07-1.55-.2-3.07-.31-4.39,1.38-.38,2.66-.8,3.81-1.27.39-.16.68-.46.83-.84.15-.39.14-.81-.04-1.2-.37-.77-1.27-1.12-2.06-.79-.85.35-1.8.67-2.91.98-.26-1.91-.59-3.61-.94-4.92-.21-.83-1.08-1.35-1.95-1.16-.4.1-.74.36-.94.71-.2.35-.26.77-.15,1.17.36,1.37.68,3.05.94,4.89-1.58.32-3.35.53-5.41.63-.41.02-.78.19-1.07.5-.29.31-.43.7-.42,1.09,0,.42.17.81.47,1.1.3.29.71.44,1.13.42ZM146.68,20.05c-.04,1.57-.1,3.14-.16,3.89h0c0,.1-.01.2-.02.29-.02.32-.03.6-.12.65-.18.1-.93-.29-2.29-.99l-.12-.06c-.34-.16-.6-.3-.63-.47-.03-.19.2-.53.74-1.07.73-.76,1.63-1.53,2.6-2.24Z"/>
        <path class="cls-1" d="M185.66,7.42c.4-1.92.65-3.48.79-4.89.07-.86-.56-1.63-1.42-1.7-.84-.05-1.59.6-1.66,1.41-.2,1.92-.5,3.85-.87,5.75-1.72.32-2.93.37-4.61.21-.88-.05-1.62.55-1.73,1.38-.04.45.11.9.39,1.22.26.29.61.46.99.48,1.49.12,2.75.09,4.19-.11-1.45,5.41-3.59,10.35-6.18,14.28-.46.68-.3,1.65.36,2.17.27.19.58.29.9.29.1,0,.2,0,.3-.03.41-.08.75-.31.98-.66,2.74-4.19,5.24-10.27,6.88-16.7,2.08-.41,3.48-.31,4.17.32.56.51.56,1.26.48,1.93-.69,6.49-1.31,9.92-2.78,10.7-.72.38-1.68.18-3.31-.68-.38-.21-.82-.26-1.23-.14-.39.12-.72.39-.91.75-.21.39-.26.84-.13,1.25.12.4.39.73.75.92,2.39,1.21,4.4,1.48,5.97.8,1.47-.64,2.54-2.1,3.19-4.35.48-1.67,1.27-5.56,1.53-8.96.12-1.32,0-3.15-1.3-4.4-1.19-1.14-3.12-1.57-5.74-1.26Z"/>
        <path class="cls-1" d="M196.24,7.59c-.64-.74-1.75-.82-2.54-.18-.33.28-.53.67-.56,1.1-.03.45.13.9.44,1.25,2.1,2.24,4.79,6.28,6.06,10.89.12.44.42.82.82,1.03.24.13.5.2.77.2.17,0,.33-.03.5-.08h0c.93-.36,1.45-1.38,1.14-2.22-1.17-3.63-4.15-9.01-6.64-11.99Z"/>
        <path class="cls-1" d="M239.67,26.18c-2.22-1.33-4.32-3.2-6.09-5.41,1.34-1.99,2.46-4.3,3.17-6.5.08-.25.09-.51.05-.75.43.4.92.81,1.43,1.15.32.22.72.28,1.09.17.4-.12.73-.41.9-.79.29-.73.04-1.58-.64-2.11-1.12-.92-2.51-2.54-3.45-4.04-.14-.2-.31-.36-.49-.48h2.86c.84,0,1.52-.68,1.52-1.52s-.68-1.52-1.52-1.52h-5.26V1.59c0-.88-.7-1.59-1.56-1.59s-1.59.73-1.59,1.59v2.78h-5.09c-.45,0-.85.19-1.12.5.02-.6-.3-1.2-.86-1.54-1.22-.66-2.13-1.41-3.11-2.33-.83-.8-2.13-.83-2.96-.07-1.31,1.23-3.4,2.92-5.3,4.02-.78.46-1.11,1.41-.78,2.22.18.41.51.71.93.84.4.12.83.07,1.19-.15.49-.29.99-.61,1.48-.95.03.68.61,1.23,1.32,1.23h4.83c.73,0,1.33-.58,1.33-1.29,0-.32-.12-.62-.31-.85.07.04.14.07.21.11.35.19.77.23,1.14.08.19-.07.37-.19.51-.34v.04c0,.85.67,1.52,1.52,1.52h2.65c-.22.14-.41.34-.55.59-.9,1.54-2,2.83-3.21,3.73-.17.13-.3.29-.41.46v-.81c0-1.17-.99-2.15-2.15-2.15h-6.52c-1.17,0-2.15.99-2.15,2.15v16.41c0,.81.7,1.49,1.53,1.49s1.49-.67,1.49-1.49v-.79h5.89c.29,0,.56-.09.79-.24-.26.41-.33.93-.15,1.41.16.42.48.74.88.9.37.15.77.13,1.12-.03,2.75-1.21,5.28-3.15,7.52-5.77,2.12,2.54,4.48,4.53,6.81,5.76.33.19.73.22,1.09.08.38-.15.67-.46.79-.85.29-.76-.04-1.65-.75-2.08ZM220.61,5.52h-4.23c.77-.6,1.48-1.18,2.12-1.74.77.67,1.47,1.22,2.34,1.75-.07-.01-.15-.02-.22-.02ZM233.33,8.26c-.11.38-.06.77.13,1.1.52.9,1.23,1.88,2.03,2.81-.29-.05-.59-.01-.87.13-.37.18-.66.52-.78.93-.49,1.63-1.21,3.26-2.15,4.84-.89-1.53-1.59-3.1-2.09-4.67-.12-.39-.41-.71-.77-.89-.19-.09-.4-.14-.61-.14-.19,0-.37.04-.55.11-.04.02-.07.03-.11.05.87-.94,1.62-1.97,2.23-3.1.38-.72.14-1.55-.54-2.01h4.72c-.32.2-.55.49-.65.85ZM223.5,13.9c.25.36.63.6,1.04.67.41.06.8-.04,1.13-.3.4-.31.78-.63,1.14-.97-.19.38-.23.82-.09,1.23.71,2.11,1.8,4.26,3.14,6.23-1.88,2.32-4.16,4.13-6.77,5.37-.1.04-.19.1-.27.16.13-.21.2-.46.2-.73,0-.77-.65-1.43-1.43-1.43h-5.89v-.82h6.18c.79,0,1.43-.64,1.43-1.43s-.65-1.46-1.43-1.46h-6.18v-.79h5.65c1.17,0,2.15-.99,2.15-2.15v-3.61ZM215.69,13.07v-1.09h4.92v1.09h-4.92ZM215.69,16.9v-1.09h4.92v1.09h-4.92Z"/>
        <path class="cls-1" d="M274.2,13h-11.08v-.71c3.1-1.73,6.41-5.12,8.25-8.49.25-.48.23-1.04-.05-1.51-.3-.48-.82-.77-1.39-.77h-17.13c-.88,0-1.59.7-1.59,1.56s.7,1.59,1.59,1.59h14.23c-1.18,1.63-2.71,3.08-4.56,4.33-.29-.2-.62-.3-.93-.3-.86,0-1.59.73-1.59,1.59v2.71h-11.21c-.86,0-1.56.71-1.56,1.59s.68,1.56,1.56,1.56h11.21v8.66c0,.37-.07.59-.23.74-.39.37-1.42.46-4.1.35-.87-.02-1.63.66-1.66,1.52,0,.89.66,1.62,1.55,1.69.5.03.98.04,1.42.04,2.57,0,4.18-.42,5.13-1.32.72-.68,1.07-1.67,1.07-3.02v-8.66h11.08c.86,0,1.56-.7,1.56-1.56s-.68-1.59-1.56-1.59Z"/>
        <path class="cls-1" d="M296.91,8.18h-8.35c-1.56,0-2.84,1.28-2.84,2.84v16.29c0,1.02.85,1.84,1.87,1.84s1.84-.82,1.84-1.84v-7.44h6.87c1.02,0,1.87-.82,1.87-1.85s-.85-1.84-1.87-1.84h-6.87v-4.31h6.59v.14c0,1.02.82,1.84,1.85,1.84s1.87-.82,1.87-1.84v-.99c0-1.56-1.28-2.84-2.84-2.84Z"/>
        <path class="cls-1" d="M317.38,8.46h-8.6c-1.56,0-2.84,1.28-2.84,2.84v15.02c0,1.56,1.28,2.84,2.84,2.84h8.6c1.56,0,2.84-1.28,2.84-2.84v-1.05c0-1.02-.85-1.84-1.87-1.84s-1.84.82-1.84,1.84v.23h-6.84v-5.31h7.52c1.02,0,1.85-.82,1.85-1.84s-.82-1.87-1.85-1.87h-7.52v-4.31h6.84v.25c0,1.02.82,1.85,1.84,1.85s1.87-.82,1.87-1.85v-1.11c0-1.56-1.28-2.84-2.84-2.84Z"/>
        <path class="cls-1" d="M339.61,18.42l-8.71-2.95c-.34-.11-.6-.43-.6-.79,0-.71-.11-1.02.37-1.53.28-.31.48-.45.6-.63.34-.37.63-.43.99-.43,1.02,0,2.67.03,3.66.03.4,0,.77.14,1.05.43l.6.6c.26.28.43.65.43,1.02v.6c0,1.02.82,1.84,1.85,1.84s1.84-.82,1.84-1.84v-1.11c-.03-1.25-.4-2.02-1.14-2.75l-1.33-1.33c-.74-.74-1.84-1.14-2.87-1.14h-4.4c-1.05,0-2.07.4-2.78,1.14l-1.42,1.33c-.74.74-1.14,1.7-1.14,2.75v1.85c0,2.16,1.19,2.84,2.33,3.21l7.75,2.55c.79.26,1.33.48,1.33,1.48v.65c0,.37-.06.6-.43,1.02-.17.23-.4.4-.6.6-.26.28-.63.43-1.02.43h-3.86c-.4,0-1.05-.43-1.05-.45-.88-.88-.99-.82-1.02-1.99,0-.03.03-.45.03-.48,0-1.02-.85-1.84-1.87-1.84s-1.85.82-1.85,1.84v1.39c0,.88.28,1.65,1.14,2.75l1.36,1.36c.71.71,1.7,1.14,2.75,1.14h4.91c1.02,0,1.99-.43,2.73-1.14l1.36-1.36c.71-.74,1.14-1.7,1.14-2.75v-2.73c0-.96-.94-2.36-2.13-2.75Z"/>
      </g>
      <path class="cls-1" d="M54.55,17.63c.99-6.7-4.54-10.12-6.31-10.81C44.69.12,36.11.47,33.85,1.89,31.39.12,29.9.14,28.53.14s-2.86-.02-5.32,1.75C20.95.47,12.36.12,8.81,6.82c-1.77.69-7.3,4.11-6.31,10.81-3.35,1.25-2.89,6.51-1.18,8.81h54.42c1.71-2.3,2.17-7.56-1.18-8.81ZM4.06,18.13s-.02.08-.03.11c-.01.04-.03.07-.05.1-.02.03-.05.06-.08.09s-.06.05-.09.08c-.03.02-.07.04-.1.06-.04.01-.07.03-.11.03-.04,0-.08.01-.12.01s-.08,0-.12-.01c-.04,0-.08-.02-.11-.03-.04-.01-.07-.03-.1-.06-.03-.02-.06-.05-.09-.08-.03-.03-.05-.06-.08-.09-.02-.03-.04-.07-.06-.1-.01-.04-.03-.08-.03-.11,0-.04-.01-.08-.01-.12,0-.16.06-.31.18-.43.14-.14.35-.2.54-.16.04,0,.08.02.11.03.04.01.07.03.1.06.03.02.06.05.09.07.11.11.18.27.18.43,0,.04,0,.08-.01.12ZM5.88,18.62c-.33,0-.6-.27-.6-.6s.27-.6.6-.6.6.27.6.6-.27.6-.6.6ZM8.89,18.13s-.02.08-.03.11c-.01.04-.03.07-.06.1-.02.03-.05.06-.08.09s-.06.05-.09.08c-.03.02-.07.04-.1.06-.04.01-.07.03-.11.03-.04,0-.08.01-.12.01s-.08,0-.12-.01c-.04,0-.08-.02-.11-.03-.04-.01-.07-.03-.1-.06-.03-.02-.06-.05-.09-.08-.03-.03-.05-.06-.08-.09-.02-.03-.04-.07-.06-.1-.01-.04-.03-.08-.03-.11,0-.04-.01-.08-.01-.12,0-.16.06-.31.18-.43.03-.03.06-.05.09-.07.03-.02.07-.04.1-.06.04-.02.08-.03.11-.03.2-.04.4.02.54.16.11.11.18.27.18.43,0,.04,0,.08-.01.12ZM10.26,7.84s-.06.05-.09.08c-.03.02-.07.04-.1.06-.04.01-.08.03-.11.03-.04,0-.08.01-.12.01-.16,0-.31-.06-.42-.18-.11-.11-.18-.27-.18-.42,0-.04,0-.08.01-.12,0-.04.02-.08.03-.11.01-.04.03-.07.06-.1.02-.03.05-.06.08-.09.14-.14.35-.2.54-.16.04,0,.08.02.11.04.04.01.07.03.1.05.03.02.06.05.09.08s.05.06.08.09.04.07.06.1c.01.04.03.07.03.11,0,.04.01.08.01.12,0,.16-.06.31-.18.42ZM12.4,9.01c-.11.18-.31.28-.51.28-.11,0-.22-.03-.32-.09-.28-.17-.37-.54-.19-.83.17-.28.54-.37.83-.19.28.18.37.55.19.83ZM14.37,10.4c-.11.11-.27.17-.43.17-.04,0-.08,0-.12-.01-.04,0-.08-.02-.11-.03-.04-.01-.07-.03-.1-.06-.03-.02-.06-.05-.09-.07-.11-.11-.18-.27-.18-.43,0-.04,0-.08.01-.12,0-.04.02-.08.03-.11.02-.04.03-.07.06-.1.02-.03.05-.06.08-.09s.06-.05.09-.08.07-.04.1-.06c.04-.01.07-.03.11-.03.08-.01.16-.01.23,0,.04,0,.08.02.11.03.04.01.07.03.1.06.03.02.06.05.09.08s.05.06.08.09c.02.03.04.07.06.1.01.04.03.08.03.11,0,.04.01.08.01.12,0,.16-.07.31-.18.43ZM23.06,3.17c-.11-.11-.17-.27-.17-.42,0-.04,0-.08.01-.12,0-.04.02-.08.03-.11.01-.04.03-.07.06-.1.02-.03.05-.06.07-.09.14-.14.35-.2.54-.16.04,0,.08.02.11.03.04.02.07.03.1.06.03.02.06.05.09.08s.05.06.08.09c.02.03.04.07.06.1.01.04.03.07.03.11,0,.04.01.08.01.12,0,.16-.06.31-.18.42-.03.03-.06.05-.09.08-.03.02-.07.04-.1.06-.04.01-.08.03-.11.03-.04,0-.08.01-.12.01s-.08,0-.12-.01c-.04,0-.08-.02-.11-.03-.04-.02-.07-.03-.1-.06-.03-.02-.06-.05-.09-.08ZM23.24,4.6c-.06-.32.15-.64.47-.7.32-.06.64.15.7.47.06.33-.15.64-.47.71-.04,0-.08.01-.12.01-.28,0-.53-.2-.59-.49ZM24.6,6.66s-.06.05-.09.07c-.03.02-.07.04-.1.06-.04.02-.07.03-.11.03-.04,0-.08.01-.12.01s-.08,0-.12-.01c-.04,0-.08-.02-.11-.03-.04-.01-.07-.03-.1-.06-.03-.02-.06-.05-.09-.07-.11-.11-.18-.27-.18-.43,0-.04,0-.08.01-.12,0-.04.02-.08.03-.11.02-.04.03-.07.06-.1.02-.03.05-.06.08-.09s.06-.05.09-.08c.03-.02.07-.04.1-.06.04-.01.07-.03.11-.03.08-.01.16-.01.23,0,.04,0,.08.02.11.03.04.01.07.03.1.06.03.02.06.05.09.08s.05.06.08.09c.02.03.04.07.06.1.01.04.03.08.03.11,0,.04.01.08.01.12,0,.16-.07.31-.18.43ZM33.47,6.35s-.02.08-.03.11-.03.07-.06.1c-.02.03-.05.06-.08.09-.03.03-.06.05-.09.07-.03.02-.07.04-.1.06-.04.02-.08.03-.11.03-.04,0-.08.01-.12.01s-.08,0-.12-.01c-.04,0-.08-.02-.11-.03-.04-.01-.07-.03-.1-.06-.03-.02-.06-.05-.09-.07-.11-.11-.17-.27-.17-.43,0-.04,0-.08.01-.12,0-.04.02-.08.03-.11.01-.04.03-.07.06-.1.02-.03.05-.06.07-.09.14-.14.35-.2.54-.16.04,0,.08.02.11.03.04.01.07.03.1.06.03.02.06.05.09.08.03.03.05.06.08.09.02.03.04.07.06.1.01.04.03.08.03.11,0,.04.01.08.01.12s0,.08-.01.12ZM33.81,4.6c-.06.29-.31.49-.59.49-.04,0-.08,0-.12-.01-.33-.06-.54-.38-.47-.71.06-.32.38-.54.71-.47.32.06.54.38.47.7ZM33.99,3.17s-.06.05-.09.08c-.03.02-.07.04-.1.06-.04.01-.07.03-.11.03-.04,0-.08.01-.12.01s-.08,0-.12-.01c-.04,0-.08-.02-.11-.03-.04-.02-.07-.03-.1-.06-.03-.02-.06-.05-.09-.08-.11-.11-.18-.27-.18-.42,0-.04,0-.08.01-.12,0-.04.02-.08.03-.11.01-.04.03-.07.05-.1.02-.03.05-.06.08-.09.11-.11.27-.18.43-.18s.31.07.42.18c.03.03.05.06.08.09.02.03.04.07.06.1.01.04.03.07.03.11,0,.04.01.08.01.12,0,.16-.06.31-.18.42ZM43.53,10.4s-.06.05-.09.07c-.03.02-.07.04-.1.06-.04.01-.08.03-.11.03-.04,0-.08.01-.12.01s-.08,0-.12-.01c-.04,0-.08-.02-.11-.03s-.07-.03-.1-.06c-.03-.02-.07-.05-.09-.07-.11-.11-.17-.27-.17-.43,0-.04,0-.08.01-.12,0-.04.02-.08.03-.11.01-.04.03-.07.06-.1.02-.03.05-.06.07-.09.11-.11.27-.18.43-.18s.31.06.42.18c.03.03.05.06.08.09.02.03.04.07.06.1.01.04.03.08.03.11,0,.04.01.08.01.12,0,.16-.06.31-.18.43ZM45.48,9.2c-.1.06-.21.09-.32.09-.2,0-.4-.1-.51-.28-.18-.28-.09-.65.19-.83.28-.17.65-.09.83.19.17.28.09.65-.19.83ZM47.65,7.84c-.11.11-.27.18-.42.18-.04,0-.08,0-.12-.01-.04,0-.08-.02-.11-.03-.04-.02-.07-.03-.1-.06-.03-.02-.06-.05-.09-.08-.11-.11-.18-.27-.18-.42,0-.04,0-.08.01-.12,0-.04.02-.08.03-.11.02-.04.03-.07.06-.1.02-.03.05-.06.08-.09s.06-.05.09-.08c.03-.02.07-.04.1-.05.04-.02.08-.03.11-.04.2-.04.4.03.54.16.03.03.05.06.08.09.02.03.04.07.05.1.02.04.03.07.04.11,0,.04.01.08.01.12,0,.16-.07.31-.18.42ZM49.34,18.13s-.02.08-.03.11c-.01.04-.03.07-.06.1-.02.03-.05.06-.07.09s-.06.05-.09.08-.07.04-.1.06c-.04.01-.07.03-.11.03s-.08.01-.12.01-.08,0-.12-.01c-.04,0-.08-.02-.11-.03-.04-.01-.07-.03-.1-.06s-.06-.05-.09-.08-.05-.06-.08-.09c-.02-.03-.04-.07-.06-.1-.01-.04-.03-.08-.03-.11,0-.04-.01-.08-.01-.12,0-.16.06-.31.18-.43s.27-.18.42-.18.31.07.43.18c.11.11.18.27.18.43,0,.04,0,.08-.01.12ZM51.17,18.62c-.33,0-.6-.27-.6-.6s.27-.6.6-.6.6.27.6.6-.27.6-.6.6ZM54.17,18.13s-.02.08-.03.11c-.01.04-.03.07-.06.1-.02.03-.05.06-.08.09s-.06.05-.09.08c-.03.02-.07.04-.1.06-.04.01-.08.03-.11.03-.04,0-.08.01-.12.01s-.08,0-.12-.01c-.04,0-.08-.02-.11-.03s-.07-.03-.1-.06c-.03-.02-.06-.05-.09-.08s-.05-.06-.08-.09c-.02-.03-.04-.07-.06-.1-.01-.04-.03-.08-.03-.11,0-.04-.01-.08-.01-.12,0-.16.06-.31.18-.43.03-.03.06-.05.09-.07.03-.02.07-.04.1-.06.04-.02.07-.03.11-.03.08-.02.16-.02.23,0,.04,0,.08.02.11.03.04.01.07.03.1.06.03.02.06.05.09.07.11.11.18.27.18.43,0,.04,0,.08-.01.12Z"/>
    </g>
  </g>
</svg>