<?xml version="1.0" encoding="UTF-8"?>
<svg id="_レイヤー_2" data-name="レイヤー 2" xmlns="http://www.w3.org/2000/svg" viewBox="0 0 119.3 126.16">
  <defs>
    <style>
      .cls-1 {
        fill: #e22a00;
        stroke-width: 0px;
      }
    </style>
  </defs>
  <g id="_レイヤー_1-2" data-name="レイヤー 1">
    <g>
      <g>
        <g>
          <path class="cls-1" d="M.96,90.62c-.15-.66.3-1.38.99-1.62,2.01-.72,4.31-2.33,5.54-3.89.45-.57,1.23-.72,1.8-.3.63.45.81,1.32.36,1.92-1.5,1.98-4.49,4.01-7.12,4.88-.69.24-1.41-.24-1.56-.99ZM8.38,91.4c0-.72.63-1.26,1.35-1.17,5.84.54,6.53-2.45,4.49-4.97-1.59-2.01-6.32-2.22-4.49-7.54.24-.72,1.02-1.11,1.77-.9.66.21,1.02.93.81,1.65-1.29,3.89,2.48,1.86,4.88,6.53,2.13,5.15-1.05,8.47-7.51,7.9-.75-.06-1.32-.72-1.29-1.5ZM15.15,75.74c-.96-1.53-2.57-2.81-4.25-3.38-.72-.27-1.08-.99-.84-1.65.3-.75,1.08-1.17,1.83-.9,2.19.78,4.25,2.45,5.48,4.4.39.63.18,1.5-.45,1.95-.57.39-1.35.21-1.77-.42ZM23.47,90.47c-.75-2.3-2.27-3.83-4.52-4.49-.69-.21-1.14-.93-.96-1.59.21-.78.99-1.23,1.71-1.02,3.14.87,5.45,3.17,6.44,6.47.24.72-.24,1.47-.99,1.65-.72.15-1.44-.3-1.68-1.02Z"/>
          <path class="cls-1" d="M45.5,93.01c-3.92-9.25-7.27-9.31-7.27-12.42,0-2.42,3.68-3.8,6.7-10.63.3-.69,1.11-1.02,1.8-.69.69.3,1.02,1.14.72,1.83-1.74,3.92-3.44,5.9-5.45,8.08-1.47,1.65-1.44,1.62.09,3.29,2.3,2.48,4.28,5.09,5.99,9.46.27.72-.09,1.53-.78,1.83-.72.3-1.53-.06-1.8-.75Z"/>
          <path class="cls-1" d="M77.46,93.49c-1.8-.09-3.14-.69-4.13-1.77-.48-.54-.39-1.35.18-1.86.48-.42,1.23-.39,1.77.06,2.75,2.25,7.15.24,6.61-2.93-.72-4.16-5.72-5.18-11.16-2.33.03,2.04-.06,4.1-.24,6.05-.33,2.57-1.98,3.35-4.76,2.27-3.14-1.32-5.42-3.2-1.17-7.06,1.17-1.05,2.36-1.95,3.56-2.69-.03-1.74-.12-3.41-.27-5-1.71.3-3.44.51-5.24.6-.72.03-1.32-.54-1.32-1.26-.03-.69.54-1.29,1.23-1.32,1.74-.09,3.44-.27,5.03-.6-.24-1.74-.54-3.29-.87-4.55-.18-.69.21-1.38.9-1.56.69-.15,1.44.24,1.62.96.33,1.23.63,2.81.87,4.58.99-.27,1.92-.57,2.78-.93.66-.27,1.41.03,1.71.66.3.66,0,1.41-.66,1.68-1.11.45-2.3.84-3.53,1.17.12,1.35.24,2.78.3,4.25,3.02-1.32,6.08-1.68,8.74-.96,7.84,2.13,6.2,12.99-1.95,12.54ZM67.97,90.05c.06-.78.12-2.39.15-3.77-1.02.72-1.89,1.47-2.57,2.19-1.05,1.05-.81,1.23-.06,1.59,2.6,1.35,2.39,1.26,2.48,0ZM85.45,79.63c-.42.57-1.2.66-1.77.24-1.53-1.08-3.47-1.74-5.57-1.92-.69-.06-1.23-.66-1.2-1.35.06-.72.69-1.29,1.41-1.23,2.57.18,5.03,1.05,6.85,2.39.6.42.69,1.26.27,1.86Z"/>
          <path class="cls-1" d="M110.01,80.2c-.24,3.14-.96,6.61-1.38,8.08-1.2,4.16-3.98,5.24-8.11,3.14-.63-.33-.87-1.14-.51-1.8.33-.63,1.11-.87,1.77-.51,3.77,2.01,4.64.69,5.69-9.16.12-1.11.12-3.08-4.43-2.15-1.38,5.45-3.56,11.07-6.23,15.15-.39.6-1.2.75-1.8.33-.54-.42-.69-1.23-.3-1.8,2.54-3.86,4.43-8.5,5.66-13.14-1.26.18-2.45.24-3.95.12-.69-.03-1.2-.66-1.14-1.41.09-.69.72-1.17,1.44-1.14,1.56.15,2.69.09,4.28-.21.36-1.8.63-3.59.81-5.3.06-.69.69-1.2,1.38-1.17.69.06,1.23.69,1.17,1.41-.15,1.47-.42,2.99-.75,4.58,6.23-.81,6.58,3.05,6.41,4.97ZM118.27,87.99c-.75.24-1.53-.21-1.74-.96-1.08-3.92-3.35-7.6-5.51-9.91-.54-.6-.48-1.47.09-1.95.66-.54,1.59-.48,2.13.15,2.15,2.57,4.91,7.45,5.99,10.81.27.72-.18,1.56-.96,1.86Z"/>
        </g>
        <g>
          <path class="cls-1" d="M69.05,124.49c0,.92-.74,1.67-1.67,1.67s-1.7-.74-1.7-1.67v-14.75c0-1.41,1.16-2.57,2.57-2.57h7.55c1.41,0,2.57,1.16,2.57,2.57v.9c0,.92-.77,1.67-1.7,1.67s-1.67-.75-1.67-1.67v-.13h-5.96v3.91h6.22c.92,0,1.7.74,1.7,1.67s-.77,1.67-1.7,1.67h-6.22v6.73Z"/>
          <path class="cls-1" d="M86.55,125.9c-1.41,0-2.57-1.16-2.57-2.57v-13.59c0-1.41,1.16-2.57,2.57-2.57h7.78c1.41,0,2.57,1.16,2.57,2.57v1c0,.92-.77,1.67-1.7,1.67s-1.67-.74-1.67-1.67v-.23h-6.19v3.91h6.81c.92,0,1.67.74,1.67,1.7s-.74,1.67-1.67,1.67h-6.81v4.8h6.19v-.21c0-.92.75-1.67,1.67-1.67s1.7.74,1.7,1.67v.95c0,1.41-1.16,2.57-2.57,2.57h-7.78Z"/>
          <path class="cls-1" d="M107.2,125.93c-.95,0-1.85-.39-2.49-1.03l-1.23-1.23c-.77-1-1.03-1.7-1.03-2.49v-1.26c0-.92.74-1.67,1.67-1.67s1.7.74,1.7,1.67c0,.03-.03.41-.03.44.03,1.05.13,1,.92,1.8,0,.03.59.41.95.41h3.49c.36,0,.69-.13.92-.39.18-.18.39-.33.54-.54.33-.39.39-.59.39-.92v-.59c0-.9-.49-1.1-1.21-1.34l-7.01-2.31c-1.03-.33-2.11-.95-2.11-2.9v-1.67c0-.95.36-1.82,1.03-2.49l1.28-1.21c.64-.67,1.57-1.03,2.52-1.03h3.98c.92,0,1.93.36,2.6,1.03l1.21,1.21c.67.67,1,1.36,1.03,2.49v1c0,.92-.75,1.67-1.67,1.67s-1.67-.75-1.67-1.67v-.54c0-.33-.15-.67-.39-.92l-.54-.54c-.26-.26-.59-.39-.95-.39-.9,0-2.39-.03-3.31-.03-.33,0-.59.05-.9.39-.1.15-.28.28-.54.57-.44.46-.33.75-.33,1.39,0,.33.23.62.54.72l7.89,2.67c1.08.36,1.93,1.62,1.93,2.49v2.47c0,.95-.39,1.82-1.03,2.49l-1.23,1.23c-.67.64-1.54,1.03-2.47,1.03h-4.44Z"/>
        </g>
        <g>
          <path class="cls-1" d="M1.84,106.5c-.63.39-1.44.12-1.74-.57-.27-.66,0-1.47.66-1.86,1.62-.93,3.5-2.42,4.82-3.65.69-.63,1.8-.63,2.51.06.9.84,1.74,1.53,2.84,2.13.6.36.87,1.08.63,1.71-.24.66-.99.93-1.59.6-1.32-.69-2.13-1.32-3.08-2.16-.72.63-1.5,1.26-2.27,1.86h4.19c.6,0,1.08.48,1.08,1.08s-.48,1.05-1.08,1.05h-4.37c-.6,0-1.08-.48-1.08-1.05v-.18c-.51.36-1.02.69-1.53.99ZM9.68,123.8h-5.45v.84c0,.66-.54,1.23-1.23,1.23s-1.26-.57-1.26-1.23v-14.85c0-.99.84-1.83,1.83-1.83h5.9c.99,0,1.83.84,1.83,1.83v5.54c0,.99-.84,1.83-1.83,1.83h-5.24v.96h5.72c.63,0,1.17.54,1.17,1.2s-.54,1.17-1.17,1.17h-5.72v.99h5.45c.63,0,1.17.54,1.17,1.17s-.54,1.17-1.17,1.17ZM8.93,110.21h-4.7v1.23h4.7v-1.23ZM4.23,114.91h4.7v-1.23h-4.7v1.23ZM26.62,125.03c-.21.66-.96.96-1.53.63-2.21-1.17-4.37-3.05-6.23-5.3-1.8,2.13-4.07,4.07-6.85,5.3-.63.3-1.38-.03-1.65-.72-.24-.63.06-1.38.72-1.68,2.57-1.23,4.64-2.99,6.23-4.97-1.23-1.8-2.22-3.74-2.87-5.69-.24-.69.15-1.44.81-1.71.66-.27,1.38.09,1.59.75.48,1.53,1.17,3.02,2.01,4.43.93-1.53,1.62-3.08,2.07-4.58.21-.69.93-1.05,1.56-.81.09.03.21.09.27.15-.87-.96-1.65-2.01-2.18-2.93-.33-.57-.12-1.32.51-1.65.6-.33,1.32-.12,1.71.45.87,1.38,2.13,2.84,3.14,3.68.57.45.78,1.17.54,1.77-.27.63-1.05.9-1.62.51-.57-.39-1.11-.87-1.65-1.38.18.3.24.69.12,1.08-.57,1.77-1.53,3.89-2.9,5.93,1.59,2.01,3.5,3.74,5.6,5,.6.36.87,1.11.63,1.74ZM16.45,106.23c.66.36.9,1.11.57,1.74-.9,1.65-2.13,3.11-3.71,4.34-.57.45-1.38.3-1.8-.33-.36-.54-.21-1.32.36-1.77,1.2-.9,2.19-2.13,2.93-3.41.33-.6,1.05-.87,1.65-.57ZM12.79,106.08c-.69,0-1.26-.54-1.26-1.26s.57-1.26,1.26-1.26h4.73v-2.63c0-.72.6-1.32,1.32-1.32s1.29.6,1.29,1.32v2.63h4.88c.69,0,1.26.57,1.26,1.26s-.57,1.26-1.26,1.26h-12.21Z"/>
          <path class="cls-1" d="M57.31,111.38c.72,0,1.29.57,1.29,1.32,0,.69-.57,1.29-1.29,1.29h-10.15v7.96c0,2.99-1.89,4.01-6.76,3.77-.75-.06-1.29-.69-1.29-1.41.03-.72.66-1.29,1.38-1.26,3.5.15,4.04-.06,4.04-1.11v-7.96h-10.27c-.72,0-1.29-.57-1.29-1.29s.57-1.32,1.29-1.32h10.27v-2.57c0-.72.6-1.32,1.32-1.32.3,0,.6.12.84.3,1.8-1.2,3.26-2.6,4.37-4.19h-13.11c-.72,0-1.32-.57-1.32-1.32,0-.69.57-1.29,1.32-1.29h15.5c.99,0,1.65,1.02,1.2,1.89-1.71,3.11-4.7,6.14-7.48,7.66v.84h10.15Z"/>
        </g>
      </g>
      <g>
        <path class="cls-1" d="M115.37,56.32H3.92c-.39,0-.76-.18-.99-.5-2.64-3.56-3.67-9.53-2.38-13.88.77-2.62,2.3-4.55,4.45-5.65-1.41-13.06,8.74-20.36,13.39-22.36,3.86-6.98,10.04-9.89,14.58-11.11,6.27-1.68,12.49-1,15.69.54C53.6,0,56.74,0,59.54,0h.1S59.75,0,59.75,0c2.78,0,5.94,0,10.88,3.37,3.19-1.54,9.41-2.22,15.69-.54,4.54,1.22,10.72,4.13,14.58,11.11,4.64,2,14.79,9.29,13.39,22.36,2.15,1.09,3.68,3.03,4.45,5.65,1.29,4.35.27,10.32-2.38,13.88-.23.31-.6.5-.99.5ZM4.57,53.86h110.16c1.72-2.7,2.78-7.42,1.65-11.22-.66-2.23-1.96-3.73-3.86-4.43-.54-.2-.87-.76-.79-1.33,1.84-12.49-8.15-19.26-12.15-20.82-.28-.11-.5-.31-.64-.57-3.43-6.48-9.1-9.16-13.26-10.28-6.43-1.72-12.44-.63-14.48.65-.42.27-.97.25-1.37-.04-4.66-3.36-7.41-3.36-10.08-3.36h-.2c-2.67,0-5.42,0-10.08,3.36-.41.29-.95.31-1.37.04-2.03-1.28-8.04-2.37-14.48-.65-4.16,1.11-9.83,3.8-13.26,10.28-.14.26-.37.46-.64.57-4,1.56-13.99,8.33-12.15,20.82.08.57-.24,1.13-.79,1.33-1.9.71-3.2,2.2-3.86,4.43-1.12,3.8-.07,8.52,1.65,11.22Z"/>
        <g>
          <path class="cls-1" d="M7.74,38.54c-.32,0-.64-.13-.87-.36-.23-.23-.36-.55-.36-.87s.13-.64.36-.87c.29-.29.71-.42,1.11-.33.08.02.16.04.23.07s.15.07.21.11c.07.04.13.1.19.15.23.23.36.54.36.87s-.13.64-.36.87c-.05.05-.12.11-.19.15-.06.04-.13.08-.21.11s-.15.05-.23.07c-.08.02-.16.03-.24.03Z"/>
          <path class="cls-1" d="M12.24,39.54c-.66-.15-1.08-.8-.94-1.46h0c.14-.66.8-1.09,1.46-.94h0c.66.15,1.08.8.94,1.46h0c-.12.58-.63.97-1.2.97h0c-.09,0-.18-.01-.26-.03Z"/>
          <path class="cls-1" d="M17.27,40.6c-.08,0-.16-.01-.24-.03-.08-.02-.16-.04-.23-.07-.08-.03-.15-.07-.21-.11-.07-.04-.13-.1-.19-.15-.23-.23-.36-.54-.36-.87,0-.08.01-.16.03-.24.02-.08.04-.16.07-.23.03-.08.06-.15.11-.21.04-.07.09-.13.15-.19.05-.05.12-.11.19-.15.06-.04.13-.08.21-.11.08-.03.15-.05.23-.07.16-.03.32-.03.48,0,.08.02.16.04.23.07.08.03.15.07.22.11.06.04.13.1.18.15.06.06.11.12.16.19.04.06.08.13.11.21.03.08.05.15.07.23.02.08.02.16.02.24,0,.33-.13.64-.36.87-.05.05-.12.11-.18.15-.07.04-.14.08-.22.11-.07.03-.15.05-.23.07-.08.02-.16.03-.24.03Z"/>
        </g>
        <g>
          <path class="cls-1" d="M20.9,17.22c-.08,0-.16-.01-.24-.02-.08-.02-.16-.04-.23-.07-.08-.03-.15-.07-.21-.11-.07-.05-.13-.1-.19-.16-.06-.05-.11-.12-.15-.18-.05-.07-.09-.14-.11-.22-.03-.07-.05-.15-.07-.23-.02-.08-.03-.16-.03-.24s.01-.16.03-.24c.02-.08.04-.16.07-.23.03-.08.06-.15.11-.21.04-.07.09-.13.15-.19.05-.06.12-.11.19-.16.06-.04.13-.08.21-.11.08-.03.15-.06.23-.08.16-.03.32-.03.48,0,.08.02.16.04.23.08.08.03.15.06.22.11.06.05.13.1.18.16.23.23.36.54.36.87,0,.08,0,.16-.02.24-.02.08-.04.16-.07.23-.03.08-.07.15-.11.22-.05.06-.1.13-.16.18-.05.06-.12.11-.18.16-.07.04-.14.08-.22.11-.07.03-.15.05-.23.07-.08.01-.16.02-.24.02Z"/>
          <path class="cls-1" d="M24.42,19.86c-.57-.38-.71-1.14-.33-1.7h0c.38-.57,1.15-.71,1.71-.33h0c.56.38.71,1.15.33,1.71h0c-.24.35-.63.54-1.02.54h0c-.24,0-.48-.07-.69-.22Z"/>
          <path class="cls-1" d="M29.32,22.94c-.32,0-.64-.13-.87-.36-.23-.23-.36-.54-.36-.87s.13-.64.36-.87c.46-.45,1.28-.45,1.74,0,.23.23.36.55.36.87s-.13.64-.36.87c-.23.23-.55.36-.87.36Z"/>
        </g>
        <g>
          <path class="cls-1" d="M48.78,7.43c-.32,0-.64-.13-.87-.36-.23-.23-.36-.55-.36-.87s.13-.64.36-.87c.05-.05.12-.11.18-.15.07-.04.14-.08.22-.11s.15-.05.23-.07c.39-.08.83.05,1.11.33.23.23.36.54.36.87s-.13.64-.36.87-.54.36-.87.36Z"/>
          <path class="cls-1" d="M48.87,11.41c-.17-.66.22-1.33.87-1.51h0c.66-.17,1.33.22,1.51.88h0c.17.66-.22,1.33-.88,1.5h0c-.1.03-.21.04-.31.04h0c-.54,0-1.04-.37-1.19-.92Z"/>
          <path class="cls-1" d="M51.34,17.22c-.08,0-.16-.01-.24-.02-.08-.02-.16-.04-.23-.07-.08-.03-.15-.07-.21-.11-.07-.05-.13-.1-.19-.16-.05-.05-.11-.12-.15-.18-.04-.07-.08-.14-.11-.22-.03-.07-.05-.15-.07-.23-.02-.08-.03-.16-.03-.24s.01-.16.03-.24c.02-.08.04-.16.07-.23.03-.08.07-.15.11-.21.04-.07.1-.13.15-.19.06-.06.12-.11.19-.16.06-.04.13-.08.21-.11.08-.03.15-.06.23-.08.16-.03.32-.03.48,0,.08.02.16.04.23.08.07.03.15.06.21.11.07.05.13.1.19.16.05.05.11.12.15.19.04.06.08.13.11.21.03.08.05.15.07.23.02.08.02.16.02.24s0,.16-.02.24c-.02.08-.04.16-.07.23-.03.08-.07.15-.11.22-.04.06-.1.13-.15.18-.06.06-.12.11-.19.16-.06.04-.14.08-.21.11-.08.03-.15.05-.23.07-.08.01-.16.02-.24.02Z"/>
        </g>
        <g>
          <path class="cls-1" d="M111.72,39.11c-.32,0-.64-.13-.87-.36-.23-.23-.36-.54-.36-.87s.13-.64.36-.87c.46-.46,1.28-.45,1.74,0,.05.06.11.12.15.19.04.06.08.14.11.22.03.07.05.15.07.23.02.08.02.16.02.24,0,.32-.13.64-.36.87-.23.23-.54.36-.87.36Z"/>
          <path class="cls-1" d="M105.64,39.18c-.15-.67.28-1.32.94-1.46h0c.66-.15,1.32.28,1.46.94h0c.14.66-.28,1.32-.94,1.46h0c-.09.02-.18.03-.26.03h0c-.57,0-1.08-.39-1.2-.97Z"/>
          <path class="cls-1" d="M101.97,41.2c-.08,0-.16-.01-.24-.03-.08-.02-.15-.04-.23-.07-.08-.03-.15-.06-.22-.11-.06-.04-.13-.1-.18-.15-.06-.06-.11-.12-.16-.19-.04-.06-.08-.13-.11-.21-.03-.08-.05-.15-.07-.23-.02-.08-.02-.16-.02-.24s0-.16.02-.24c.02-.08.04-.16.07-.23.03-.08.07-.15.11-.22.05-.06.1-.13.16-.18.29-.29.71-.42,1.11-.34.08.02.15.04.23.07.08.03.15.07.22.11.06.05.13.1.18.16.06.05.11.12.16.18.04.07.08.14.11.22.03.07.06.15.08.23.01.08.02.16.02.24s-.01.16-.02.24c-.02.08-.04.16-.08.23-.03.08-.06.15-.11.21-.05.07-.1.13-.16.19-.05.05-.12.11-.18.15-.07.05-.14.09-.22.11-.08.03-.15.05-.23.07-.08.02-.16.03-.24.03Z"/>
        </g>
        <g>
          <path class="cls-1" d="M98.5,17.22c-.32,0-.64-.13-.87-.36s-.36-.54-.36-.87c0-.08.01-.16.03-.24.02-.08.04-.15.07-.23.03-.08.06-.15.11-.22.04-.06.09-.13.15-.18.29-.29.71-.42,1.11-.34.08.02.16.04.23.07.07.03.15.07.21.11.06.05.13.1.18.16.06.05.11.12.16.18.04.07.08.14.11.22.03.08.05.15.07.23.02.08.02.16.02.24,0,.32-.13.64-.36.87-.05.06-.12.11-.18.16-.06.04-.14.08-.21.11-.08.03-.16.05-.23.07-.08.02-.16.02-.24.02Z"/>
          <path class="cls-1" d="M93.27,19.54c-.38-.56-.24-1.33.33-1.71h0c.56-.38,1.33-.23,1.7.33h0c.38.56.24,1.33-.32,1.71h0c-.22.14-.45.21-.69.21h0c-.39,0-.78-.19-1.02-.54Z"/>
          <path class="cls-1" d="M90.08,22.94c-.08,0-.16-.01-.24-.03-.08-.02-.16-.04-.23-.07-.08-.03-.15-.07-.22-.11-.06-.04-.13-.1-.18-.15-.06-.06-.11-.12-.16-.19-.04-.06-.08-.13-.11-.21-.03-.08-.05-.15-.07-.23-.02-.08-.02-.16-.02-.24,0-.32.13-.64.36-.87.05-.05.12-.11.18-.15.07-.04.14-.08.22-.11.07-.03.15-.05.23-.07.4-.08.83.05,1.11.33.06.06.11.12.15.19.05.06.09.14.11.21.03.08.06.16.07.23.02.08.03.16.03.24,0,.08-.01.16-.03.24-.01.08-.04.16-.07.23-.03.08-.06.15-.11.21-.04.07-.09.13-.15.19-.23.23-.54.36-.87.36Z"/>
        </g>
        <g>
          <path class="cls-1" d="M70.19,7.08c-.32,0-.64-.13-.87-.36-.06-.05-.11-.12-.15-.18-.05-.07-.09-.14-.11-.22-.03-.08-.06-.15-.07-.23-.02-.08-.03-.16-.03-.24s.01-.16.03-.24c.01-.08.04-.16.07-.23.03-.08.06-.15.11-.22.04-.06.09-.13.15-.18.46-.46,1.28-.46,1.74,0,.06.05.11.12.16.18.04.07.08.14.11.22.03.07.05.15.07.23.02.08.02.16.02.24s0,.16-.02.24c-.02.08-.04.15-.07.23-.03.08-.07.15-.11.22-.05.06-.1.13-.16.18-.23.23-.54.36-.87.36Z"/>
          <path class="cls-1" d="M68.5,11.9c-.66-.18-1.04-.86-.86-1.52h0c.18-.65.86-1.04,1.52-.85h0c.65.18,1.04.86.86,1.52h0c-.15.54-.65.9-1.19.9h0c-.11,0-.22-.02-.33-.05Z"/>
          <path class="cls-1" d="M67.48,16.82c-.32,0-.64-.13-.87-.36-.23-.23-.36-.55-.36-.87s.13-.64.36-.87c.46-.46,1.28-.46,1.74,0,.23.23.36.55.36.87s-.13.64-.36.87c-.23.23-.54.36-.87.36Z"/>
        </g>
      </g>
    </g>
  </g>
</svg>