<?xml version="1.0" encoding="UTF-8"?>
<svg id="_レイヤー_2" data-name="レイヤー 2" xmlns="http://www.w3.org/2000/svg" viewBox="0 0 119.43 56.39">
  <defs>
    <style>
      .cls-1 {
        fill: #e22a00;
        stroke-width: 0px;
      }
    </style>
  </defs>
  <g id="_レイヤー_1-2" data-name="レイヤー 1">
    <g>
      <path class="cls-1" d="M115.51,56.39H3.93c-.39,0-.76-.18-.99-.5-2.65-3.56-3.67-9.54-2.38-13.9.78-2.62,2.31-4.56,4.46-5.65-1.41-13.08,8.75-20.38,13.4-22.38,3.87-6.98,10.05-9.9,14.6-11.12,6.28-1.68,12.51-1,15.7.54C53.66,0,56.81,0,59.62,0h.1S59.82,0,59.82,0c2.79,0,5.95,0,10.9,3.38,3.2-1.54,9.42-2.22,15.7-.54,4.55,1.22,10.74,4.14,14.6,11.12,4.65,2,14.81,9.3,13.4,22.38,2.15,1.09,3.68,3.03,4.46,5.65,1.29,4.36.27,10.33-2.38,13.9-.23.31-.6.5-.99.5ZM4.57,53.93h110.29c1.72-2.7,2.78-7.43,1.65-11.23-.66-2.24-1.96-3.73-3.86-4.44-.54-.2-.87-.76-.79-1.33,1.84-12.5-8.16-19.28-12.16-20.84-.28-.11-.5-.31-.64-.57-3.43-6.49-9.11-9.17-13.28-10.29-6.44-1.72-12.46-.63-14.49.65-.42.27-.97.25-1.38-.04-4.67-3.36-7.42-3.36-10.09-3.36h-.2c-2.67,0-5.42,0-10.09,3.36-.41.29-.95.31-1.38.04-2.04-1.28-8.05-2.37-14.49-.65-4.16,1.11-9.84,3.8-13.27,10.29-.14.26-.37.46-.64.57-4.01,1.56-14,8.34-12.16,20.84.08.58-.24,1.13-.79,1.33-1.9.71-3.2,2.2-3.86,4.44-1.13,3.8-.07,8.53,1.65,11.23Z"/>
      <g>
        <path class="cls-1" d="M7.75,38.58c-.32,0-.64-.14-.88-.36-.23-.23-.36-.55-.36-.87s.13-.64.36-.87c.29-.29.71-.42,1.11-.33.08.02.16.04.23.07s.15.07.21.11c.07.04.14.1.19.15.23.23.36.55.36.87s-.13.64-.36.87c-.05.05-.12.11-.19.15-.06.04-.14.08-.21.11s-.15.05-.23.07c-.08.02-.16.03-.24.03Z"/>
        <path class="cls-1" d="M12.26,39.59c-.66-.15-1.09-.8-.94-1.46h0c.14-.66.8-1.09,1.46-.95h0c.66.15,1.09.8.94,1.46h0c-.12.58-.63.97-1.2.97h0c-.09,0-.18-.01-.26-.03Z"/>
        <path class="cls-1" d="M17.29,40.65c-.08,0-.16-.01-.24-.03-.08-.02-.16-.04-.23-.07-.08-.03-.15-.07-.21-.11-.07-.04-.14-.1-.19-.15-.23-.23-.36-.55-.36-.88,0-.08.01-.16.03-.24.02-.08.04-.16.07-.23.03-.08.06-.15.11-.21.04-.07.09-.13.15-.19.05-.05.12-.11.19-.15.06-.04.14-.08.21-.11.08-.03.15-.05.23-.07.16-.03.32-.03.48,0,.08.02.16.04.23.07.08.03.15.07.22.11.06.04.13.1.18.15.06.06.11.12.16.19.04.06.08.14.11.21.03.08.05.15.07.23.02.08.02.16.02.24,0,.33-.13.64-.36.88-.05.05-.12.11-.18.15-.07.04-.14.08-.22.11-.07.03-.15.05-.23.07-.08.02-.16.03-.24.03Z"/>
      </g>
      <g>
        <path class="cls-1" d="M20.93,17.24c-.08,0-.16-.01-.24-.02-.08-.02-.16-.04-.23-.07-.08-.03-.15-.07-.21-.11-.07-.05-.14-.1-.19-.16-.06-.05-.11-.12-.15-.18-.05-.07-.09-.14-.11-.22-.03-.07-.05-.15-.07-.23-.02-.08-.03-.16-.03-.24s.01-.16.03-.24c.02-.08.04-.16.07-.23.03-.08.06-.15.11-.21.04-.07.09-.14.15-.19.05-.06.12-.11.19-.16.06-.04.14-.08.21-.11.08-.03.15-.06.23-.08.16-.03.32-.03.48,0,.08.02.16.04.23.08.08.03.15.06.22.11.06.05.13.1.18.16.23.23.36.55.36.87,0,.08,0,.16-.02.24-.02.08-.04.16-.07.23-.03.08-.07.15-.11.22-.05.06-.1.13-.16.18-.05.06-.12.11-.18.16-.07.04-.14.08-.22.11-.07.03-.15.05-.23.07-.08.01-.16.02-.24.02Z"/>
        <path class="cls-1" d="M24.45,19.89c-.57-.38-.71-1.15-.33-1.71h0c.38-.57,1.15-.71,1.71-.33h0c.56.38.71,1.15.33,1.71h0c-.24.35-.63.54-1.02.54h0c-.24,0-.48-.07-.69-.22Z"/>
        <path class="cls-1" d="M29.36,22.96c-.32,0-.64-.14-.87-.36-.23-.23-.36-.55-.36-.87s.13-.64.36-.88c.46-.45,1.29-.45,1.74,0,.23.23.36.55.36.88s-.13.64-.36.87c-.23.23-.55.36-.87.36Z"/>
      </g>
      <g>
        <path class="cls-1" d="M48.83,7.44c-.32,0-.64-.14-.87-.36-.23-.23-.36-.55-.36-.88s.13-.64.36-.87c.05-.05.12-.11.18-.15.07-.04.14-.08.22-.11s.15-.05.23-.07c.39-.08.83.05,1.11.33.23.23.36.55.36.87s-.13.64-.36.88-.55.36-.87.36Z"/>
        <path class="cls-1" d="M48.93,11.42c-.17-.66.22-1.33.88-1.51h0c.66-.17,1.33.22,1.51.88h0c.17.66-.22,1.33-.88,1.5h0c-.1.03-.21.04-.31.04h0c-.55,0-1.04-.37-1.19-.92Z"/>
        <path class="cls-1" d="M51.4,17.24c-.08,0-.16-.01-.24-.02-.08-.02-.16-.04-.23-.07-.08-.03-.15-.07-.21-.11-.07-.05-.13-.1-.19-.16-.05-.05-.11-.12-.15-.18-.04-.07-.08-.14-.11-.22-.03-.07-.05-.15-.07-.23-.02-.08-.03-.16-.03-.24s.01-.16.03-.24c.02-.08.04-.16.07-.23.03-.08.07-.15.11-.21.04-.07.1-.14.15-.19.06-.06.12-.11.19-.16.06-.04.14-.08.21-.11.08-.03.15-.06.23-.08.16-.03.32-.03.48,0,.08.02.16.04.23.08.07.03.15.06.21.11.07.05.13.1.19.16.05.05.11.12.15.19.04.06.08.14.11.21.03.08.05.15.07.23.02.08.02.16.02.24s0,.16-.02.24c-.02.08-.04.16-.07.23-.03.08-.07.15-.11.22-.04.06-.1.13-.15.18-.06.06-.12.11-.19.16-.06.04-.14.08-.21.11-.08.03-.15.05-.23.07-.08.01-.16.02-.24.02Z"/>
      </g>
      <g>
        <path class="cls-1" d="M111.85,39.16c-.32,0-.64-.14-.87-.36-.23-.23-.36-.55-.36-.87s.14-.64.36-.88c.46-.46,1.29-.45,1.74,0,.05.06.11.12.15.19.04.06.08.14.11.22.03.07.05.15.07.23.02.08.02.16.02.24,0,.32-.13.64-.36.87-.23.23-.55.36-.88.36Z"/>
        <path class="cls-1" d="M105.77,39.23c-.15-.67.28-1.32.95-1.46h0c.66-.15,1.32.28,1.46.95h0c.14.66-.28,1.32-.95,1.46h0c-.09.02-.18.03-.26.03h0c-.57,0-1.08-.39-1.2-.97Z"/>
        <path class="cls-1" d="M102.09,41.25c-.08,0-.16-.01-.24-.03-.08-.02-.15-.04-.23-.07-.08-.03-.15-.06-.22-.11-.06-.04-.13-.1-.18-.15-.06-.06-.11-.12-.16-.19-.04-.06-.08-.14-.11-.21-.03-.08-.05-.15-.07-.23-.02-.08-.02-.16-.02-.24s0-.16.02-.24c.02-.08.04-.16.07-.23.03-.08.07-.15.11-.22.05-.06.1-.13.16-.18.29-.29.71-.42,1.11-.34.08.02.15.04.23.07.08.03.15.07.22.11.06.05.13.1.18.16.06.05.11.12.16.18.04.07.08.14.11.22.03.07.06.15.08.23.01.08.02.16.02.24s-.01.16-.02.24c-.02.08-.04.16-.08.23-.03.08-.06.15-.11.21-.05.07-.1.13-.16.19-.05.05-.12.11-.18.15-.07.05-.14.09-.22.11-.08.03-.15.05-.23.07-.08.02-.16.03-.24.03Z"/>
      </g>
      <g>
        <path class="cls-1" d="M98.62,17.24c-.32,0-.64-.13-.87-.36s-.36-.55-.36-.87c0-.08.01-.16.03-.24.02-.08.04-.15.07-.23.03-.08.06-.15.11-.22.04-.06.09-.13.15-.18.29-.29.71-.42,1.11-.34.08.02.16.04.23.07.07.03.15.07.21.11.06.05.13.1.18.16.06.05.11.12.16.18.04.07.08.14.11.22.03.08.05.15.07.23.02.08.02.16.02.24,0,.32-.13.64-.36.87-.05.06-.12.11-.18.16-.06.04-.14.08-.21.11-.08.03-.16.05-.23.07-.08.02-.16.02-.24.02Z"/>
        <path class="cls-1" d="M93.39,19.56c-.38-.56-.24-1.33.33-1.71h0c.56-.38,1.33-.23,1.71.33h0c.38.56.24,1.33-.32,1.71h0c-.22.14-.45.21-.69.21h0c-.39,0-.78-.19-1.02-.54Z"/>
        <path class="cls-1" d="M90.19,22.96c-.08,0-.16-.01-.24-.03-.08-.02-.16-.04-.23-.07-.08-.03-.15-.07-.22-.11-.06-.04-.13-.1-.18-.15-.06-.06-.11-.12-.16-.19-.04-.06-.08-.14-.11-.21-.03-.08-.05-.15-.07-.23-.02-.08-.02-.16-.02-.24,0-.32.13-.64.36-.88.05-.05.12-.11.18-.15.07-.04.14-.08.22-.11.07-.03.15-.05.23-.07.41-.08.83.05,1.11.33.06.06.11.12.15.19.05.06.09.14.11.21.03.08.06.16.07.23.02.08.03.16.03.24,0,.08-.01.16-.03.24-.01.08-.04.16-.07.23-.03.08-.06.15-.11.21-.04.07-.09.13-.15.19-.23.23-.55.36-.87.36Z"/>
      </g>
      <g>
        <path class="cls-1" d="M70.27,7.09c-.32,0-.64-.13-.87-.36-.06-.05-.11-.12-.15-.18-.05-.07-.09-.14-.11-.22-.03-.08-.06-.15-.07-.23-.02-.08-.03-.16-.03-.24s.01-.16.03-.24c.01-.08.04-.16.07-.23.03-.08.06-.15.11-.22.04-.06.09-.13.15-.18.46-.46,1.29-.46,1.74,0,.06.05.11.12.16.18.04.07.08.14.11.22.03.07.05.15.07.23.02.08.02.16.02.24s0,.16-.02.24c-.02.08-.04.15-.07.23-.03.08-.07.15-.11.22-.05.06-.1.13-.16.18-.23.23-.55.36-.87.36Z"/>
        <path class="cls-1" d="M68.58,11.92c-.66-.18-1.04-.86-.86-1.52h0c.18-.65.86-1.04,1.52-.85h0c.65.18,1.04.86.86,1.52h0c-.15.55-.65.9-1.19.9h0c-.11,0-.22-.02-.33-.05Z"/>
        <path class="cls-1" d="M67.56,16.84c-.32,0-.64-.13-.88-.36-.23-.23-.36-.55-.36-.88s.13-.64.36-.87c.46-.46,1.29-.46,1.74,0,.23.23.36.55.36.87s-.14.64-.36.88c-.23.23-.55.36-.87.36Z"/>
      </g>
    </g>
  </g>
</svg>